<?xml version="1.0" encoding="UTF-8"?>
<svg id="_레이어_2" data-name="레이어 2" xmlns="http://www.w3.org/2000/svg" viewBox="0 0 808.11 141.99">
  <defs>
    <style>
      .cls-1 {
        fill: white;
        stroke-width: 0px;
      }
    </style>
  </defs>
  <g id="_레이어_1-2" data-name="레이어 1">
    <g>
      <path class="cls-1" d="M98.86,125.03c-1.1-1.33-2.18-2.69-3.83-3.4.19-2.03-1.36-2.82-2.65-3.86-1.06-.86-3.19-1.29-2.36-3.2.74-1.69,2.65-.9,4.05-.94,2.99-.08,5.99-.12,8.98,0,3.74.16,5.28-1.51,4.6-5.14-2.14-11.54-4.3-23.08-6.51-34.6-.41-2.12-1.68-3.55-4.07-3.69-2.2-.13-3.41,1.02-4.06,2.94-.42,1.25-.84,2.52-1.15,3.8-3.92,16.42-6.98,33-10.05,49.59-2.72,14.68.42,12.26-14.32,12.8-3.75.14-5.92-2.18-8.82-3.14-3.23-1.07-5.27,3.77-9.26,3.7-14.64-.28-29.29-.19-43.93-.05-3.58.03-4.48-1.43-4.63-4.73C-.04,114.61.35,94.07,0,73.55c-.07-4.27,1.29-5.97,5.67-5.91,14.14.2,28.28.14,42.42.18,1.36,0,2.58.36,3.77,1.07,7.97,4.77,11.39,12.08,9.93,21.39-.14.91-.92,1.85.08,2.73-.32.68-.64,1.36-.96,2.04q-8.06,6.69-.51,13.26c.75.65,1.44,1.37,2.17,2.06,3.53,3.32,5.11,2.9,6.27-1.71,3.05-12.18,4.97-24.6,8.31-36.73,1.02-3.7,2.48-4.32,5.7-4.26,7.99.16,15.98.14,23.97.11,8.53-.04,8.35-.04,10.3,8.16,2.49,10.46,5.32,20.85,7.97,31.28.41,1.62,1.22,2.89,3,2.66,1.52-.19,2-1.55,2.06-2.97.03-.83.03-1.66.03-2.49-.05-15.08.05-30.16-.25-45.23-.09-4.38,1.27-5.82,5.64-5.76,13.81.19,27.63.15,41.44-.05,2.73-.04,7.42,1.77,7.86-1.56.53-4-4.64-3.79-7.57-4.78-6.28-2.11-12.98-3.09-18.73-6.57-11.94-7.21-19.47-17.81-23.12-31.11-.79-2.87-1.85-5.92-1.02-9.38,8.71,5.46,17.35,10.53,27.1,11.56,8.04.86,15.12,3.51,22.21,6.76,7.21,3.3,11.76,8.92,14.53,16.21,2.98,7.86,3.97,16.02,4.12,24.35.14,7.63.79,8.36,8.29,9.5,2.76.42,4.59,1.23,2.83,4.5-.36.66-.27,1.61-.22,2.42,1.01,16.05.47,32.13.74,48.19.18,10.95.12,10.95,8.97,16.15-4.73,1.12-9.16.76-13.51.69-9.38-.14-13.94-4.92-14.02-14.2-.04-4.47-.03-8.95-.15-13.42-.14-5.03-1.4-6-6.02-4.52-1.8.58-3.59.59-5.41.65-7.81.26-15.64.4-23.44.86-5.59.33-7.07,1.98-7.13,7.35-.07,6.13-.19,12.27.1,18.39.2,4.34-1.51,5.76-5.77,5.91-10.68.39-21.24-1.39-31.88-1.31-1.44,0-2.4-.37-2.95-1.99-2.31-6.77-8.31-9.73-13.96-13.01ZM33.93,136.52c1.91,1.39,2.97.58,3.56-1.39.83-.09,1.4-.49,1.61-1.33,2.91-1.08,3.53-3.24,2.84-6.01.58-1.36.6-2.72.04-4.08,1.4-3.15-.12-5.38-2.37-7.34-4.37-3.81-8.78-7.58-13.16-11.39-.88-.76-1.9-1.64-1.36-2.92.67-1.58,2-.53,3.04-.43,4.68.46,9.44,1.1,12.88-3.16,3.05-3.79,4.85-8.45,2.81-12.85-2.18-4.72-6.01-8.56-11.77-9.39-.5-.52-1-1.03-1.51-1.55-3.03-4.41-7.48-4.47-11.84-3.21-4.16,1.21-2.78,5.16-2.76,8.09.11,17.01.33,34.02.61,51.03.12,6.85,2.8,8.39,9.53,5.75,2.6.77,5.21.65,7.84.18ZM163.02,103.17c3.47-.2,6.95-.37,10.42-.61,5.74-.4,8.57-2.65,9.5-8.22.65-3.89.81-7.87.95-11.82.09-2.5-.36-5.08-2.45-6.77-7.07-5.71-14.17-11.37-21.38-16.91-2.21-1.7-5.05-2.14-7.55-.82-2.46,1.3-1.88,4.04-1.85,6.28.12,9.08.44,18.16.53,27.23.11,11.53.05,11.53,11.83,11.64Z"/>
      <path class="cls-1" d="M427.19,103.96c-.02-13.21.1-26.42-.13-39.63-.08-4.29,1.36-5.9,5.69-5.9,4.16,0,6.06,1.19,5.91,5.68-.23,6.97,0,6.97,7.15,6.97,1,0,2-.11,2.99,0,4.82.58,6.43-1.56,6.24-6.26-.25-6.21.55-6.58,6.89-6.34,2.73.1,4.16,1.25,4.12,3.8-.22,14.19.73,28.4-.79,42.56-.36-.02-.61.13-.76.45-12.04-.05-24.08-.1-36.12-.16-.4-.39-.79-.77-1.19-1.16ZM446.68,93.37c2.29-.51,5.66,1.36,7.52-1.45,1.45-2.2,1.79-5.77,0-7.45-3.6-3.37-8.49-1.28-12.83-1.34-2.04-.03-2.59,1.5-2.78,3.38-.64,6.26-.03,6.85,8.1,6.86Z"/>
      <path class="cls-1" d="M546.97,101.51c-1.31,2.92-3.51,3.78-6.72,3.71-9.15-.2-18.31-.16-27.46.05-4.15.09-6.04-1.15-5.95-5.63.22-11.93.19-23.86.01-35.79-.06-4.3,1.95-5.37,5.79-5.41,4.08-.03,5.62,1.59,5.58,5.65-.07,7.05.21,7.16,7.37,7.15,1,0,2,0,3,0,6.27.03,6.65-.18,6.43-6.35-.16-4.45.87-6.83,6.09-6.49,3.86.25,5.42,1.63,5.35,5.37-.15,8.94-.22,17.88-.24,26.83,0,1.57-.67,3.34.82,4.68-.02,2.08-.04,4.15-.06,6.23ZM526.75,93.36c2.4-.58,6.03,1.4,7.83-1.78,1.16-2.04,1.51-5.5-.17-7.04-3.6-3.3-8.47-1.5-12.82-1.61-1.76-.04-3.09,1.03-3.41,2.95-.03.16,0,.33-.03.49-.9,5.99.37,7.07,8.59,6.98Z"/>
      <path class="cls-1" d="M296.72,119.82c-.4-3.25-.4-3.34-4.09-3.4-6.64-.1-13.29-.24-19.93-.05-4.68.13-5.42-2.39-5.48-6.25-.07-4.09,1.57-5.54,5.62-5.52,20.76.12,41.53.13,62.29,0,4.24-.02,5.93,1.46,5.98,5.78.04,4.5-1.54,6.24-6.13,6.05-6.8-.28-13.62.11-20.43-.12-4.2-.14-6.11,1.07-5.75,5.61.38,4.77-.09,9.6.2,14.38.26,4.43-2.08,5.3-5.8,5.3-3.61,0-6.09-.51-5.97-5.09.12-4.9.88-9.87-.48-14.74,0-.65,0-1.31-.01-1.96Z"/>
      <path class="cls-1" d="M655.21,107.37c-22.58.82-45.17.39-67.76.43-5.06,0-6.19-2.33-5.84-6.76.25-3.16,1.68-4.44,4.69-4.44,5.15,0,10.3-.05,15.45-.06,6.83,0,7.13-.28,7.14-6.83,0-1.16,0-2.32,0-3.47,0-5.89,1.01-6.71,7.04-6.45,3.28.14,4.65,1.39,4.76,4.82.38,11.81.49,11.82,12.27,11.89,5.65.04,11.3.03,16.95,0,6.62-.02,7.17.52,6.92,6.97-.04,1.15-.11,2.31-.16,3.46-.48.14-.97.29-1.45.43Z"/>
      <path class="cls-1" d="M392.29,95.07c1.5,1.88,1.33,3.87.41,5.91-.34.03-.49.21-.45.54-1.06.48-1.78,1.17-1.47,2.46-.35.03-.52.22-.49.57-2.69,2.58-5.26-.53-7.9-.17-2.95-2.82-5.9-5.63-8.85-8.45-.3-2.14-1.45-3.72-3.53-4.23-1.63-.4-2.35.73-2.4,2.28-.3.08-.42.28-.37.58-3.28,3.9-6.62,7.74-10.65,10.92-3.98,3.14-5.35,2.66-9.99-2.75-3.02-3.52.22-4.49,2.14-6.01,10.31-8.16,15.65-18.46,14.66-31.87-.49-6.58,3.29-9.07,9.61-7,3.04,1,2.52,3.59,2.46,5.8-.21,8.45.89,16.53,6.48,23.35,1.83,2.23,3.4,4.86,6.58,5.53.12.37.36.54.75.53.29,1.21,1.01,1.77,2.28,1.53.1.35.34.5.7.47Z"/>
      <path class="cls-1" d="M670.11,109.84c-4.59.98-6.64-2.58-8.64-5.36-2.11-2.95,1.03-4.7,2.74-6.58,7.08-7.79,11.27-16.69,10.79-27.43-.09-2.15.09-4.31-.07-6.45-.3-4.07.49-6.69,5.59-6.42,6.06.33,6.59.51,6.57,6.49-.01,5.47.02,10.94,1.17,16.31,1.28,6.03,4.64,10.87,8.83,15.27,1.7,1.79,4.86,3.34,3.01,6.52-1.77,3.05-3.4,6.7-8.06,6.2-.28-.2-.55-.4-.83-.59q-9.28-13.36-18.17-1.02c-.17.24-.14.61-.21.93-1.21.32-2,1.18-2.72,2.13Z"/>
      <path class="cls-1" d="M479.39,118.77c-.76-1.83-1.28-3.63-1.27-5.71.09-17.38.16-34.77-.01-52.15-.04-4.28,1.31-5.85,5.71-5.83,4.39.02,6.52,1.25,6.27,5.93-.25,4.62.05,9.27-.05,13.9-.07,3.31.72,5.56,4.67,5.28,3.99-.28,5.01,1.87,5.01,5.55,0,3.71-1.08,5.65-5.07,5.49-1.87-.07-4.25-.39-4.01,2.77-.08.65-.16,1.29-.24,1.94-1.03,4.3-1.11,8.61.04,12.91-.02,2.32-.04,4.65-.05,6.97-1.1.68-1.7,1.7-2.01,2.92-2.99,0-5.97.01-8.96.02Z"/>
      <path class="cls-1" d="M514.99,114.82c2.33-2.53,5.4-2.03,8.35-2.01,2.64.02,3.96,1.4,4.04,3.99.02.5,0,.99,0,1.49q.26,12.29,12.47,12.37c9.48.04,18.96.13,28.43-.09,3.96-.09,5.22,1.39,5.21,5.22,0,3.66-.5,6.13-4.97,6.11-16.13-.09-32.26-.09-48.39-.04-3.42,0-4.8-1.48-4.66-4.85.1-2.4.94-4.91-.47-7.23.45-4.99.49-9.97,0-14.95Z"/>
      <path class="cls-1" d="M648.17,130.39c2.71,2.67,2.85,6.08,1.67,9.18-1.19,3.11-4.48,2.11-7.04,2.12-15.09.06-30.18.11-45.28.11-5.94,0-6.5-.61-6.52-6.58-.02-5.45.09-10.9-.03-16.35-.1-4.42,2.69-4.52,5.96-4.5,3.26.01,6.1.13,5.9,4.54-.12,2.63-.21,5.3.1,7.91.2,1.7.11,4.35,3.34,3.34,13.96.73,27.94.2,41.91.23Z"/>
      <path class="cls-1" d="M412.99,98.9c-.95,5.41-.25,10.86-.25,16.28,0,4.24-2.47,4.31-5.53,4.3-3.16,0-6.13.13-6.11-4.36.05-18.5.09-37,0-55.5-.02-4.6,3.05-4.38,6.06-4.43,2.99-.05,5.68.18,5.54,4.39-.19,5.61.06,11.23-.07,16.85-.08,3.32,1.08,4.97,4.61,4.69,3.05-.24,5.26.78,5.24,4.33-.02,3.32,1.14,7.25-4.07,7.96-5.72-.62-5.88-.45-5.41,5.5Z"/>
      <path class="cls-1" d="M471.36,130.22c5.45.18,10.89.51,16.34.5,4.34-.01,4.62,2.61,4.69,5.9.08,3.51-1.27,5.26-4.89,5.26-15.6-.03-31.19-.05-46.79,0-3.29.01-4.89-1.23-4.83-4.68.12-6.61.16-13.22,0-19.82-.1-4.34,2.5-4.66,5.83-4.68,3.39-.01,6.02.52,5.91,4.72-.05,2.15,0,4.29,0,6.44,0,7.05.54,7.5,7.81,6.37,5.31.41,10.61.43,15.92,0Z"/>
      <path class="cls-1" d="M562.24,119.19c-1.5-1.81-2.31-3.7-2.29-6.25.16-17.38.23-34.77.06-52.15-.04-4.36,1.46-5.76,5.77-5.79,4.32-.03,5.81,1.34,5.75,5.73-.26,19.03-.23,38.06-.3,57.09-2.76,2-6.05.56-9,1.37Z"/>
      <path class="cls-1" d="M303.11,97.46c-7.82,0-15.65-.13-23.46.06-3.71.09-5.11-1.47-5.11-4.96,0-10.44-.02-20.88-.12-31.31-.03-3.41,1.54-4.8,4.89-4.64,3.09.15,6.87-.76,6.48,4.32-.35,4.43,2.06,5.26,5.83,5.19,7.65-.15,15.31-.14,22.96.02,3.86.08,6.08-.92,5.63-5.32-.43-4.18,2.48-4.32,5.57-4.21,3.06.12,6.26-.23,6.23,4.32-.06,10.6-.07,21.21-.03,31.81.01,3.4-1.6,4.74-4.9,4.72-7.99-.07-15.97-.02-23.96-.02v.02ZM303.11,85.99v.02c4.16,0,8.32-.1,12.47.03,3.2.11,4.58-1.31,4.57-4.4-.01-3.17-1.64-4.39-4.7-4.37-8.48.06-16.96.05-25.44,0-2.91-.02-4.21,1.26-4.28,4.17-.07,3.13,1.24,4.6,4.41,4.56,4.32-.06,8.64-.02,12.97-.02Z"/>
      <path class="cls-1" d="M231.98,68.62c5.58.36,9.71.69,13.85.86,3.48.14,5.7,2.16,6.64,5.08,1.04,3.25,1.29,6.9-.21,10.04-1.23,2.58-11.71,2.43-13.12-.28-2.39-4.62-6.53-7.37-10.03-10.83-1.09-1.07-3.41-1.68-2.63-3.69.75-1.93,2.88-1.03,4.45-1.17.82-.07,1.66-.01,1.04-.01Z"/>
      <path class="cls-1" d="M230.7,139.34c7.56-2.75,10.09-8.21,9.36-15.56-.33-3.36,1.05-4.57,4.56-4.59,9.83-.06,9.83-.21,8.81,9.31-.64,6.02-4.81,10.52-11.05,11.45-3.74.56-7.57.77-11.68-.61Z"/>
      <path class="cls-1" d="M757.8,84.96c-.78,3.24,1.34,3.49,3.66,3.49,4.82,0,9.65.13,14.47-.05,3.85-.14,5,1.83,4.82,5.2-.17,3.28.38,6.93-4.9,6.68-4.81-.22-9.65.05-14.47-.08-3.03-.08-4.14,1.19-4.09,4.14.21,12.22-1.09,10.95,9.99,10.41,5.49-.26,10.96-.48,16.37-1.42,1.99-.34,4.56-1,4.5,1.99-.06,3.07,2.33,7.38-2.63,8.85-5.28,1.57-10.79,1.98-16.29,2.04-6.32.07-12.64-.05-18.96.07-3.04.06-4.71-.9-4.71-4.19.04-18.21.01-36.43,0-54.64,0-2.6,1.05-3.98,3.86-3.97,9.15.05,18.29.04,27.44-.03,4.4-.03,4.42,2.8,4.53,6.03.12,3.55-.64,5.75-4.83,5.61-4.65-.16-9.32.21-13.97,0-4.65-.21-6.06,1.7-4.74,5.97-.46,1.29-.51,2.59-.07,3.89Z"/>
      <path class="cls-1" d="M808.03,98.42c0,12.59-.13,25.18.07,37.77.07,4.3-1.38,5.93-5.76,5.79-4.07-.13-6.13-1.23-6.02-5.75.25-10.26-.02-20.54.22-30.81.09-3.98-.97-6.02-5.29-5.51-4.54.54-5.6-1.98-5.67-6.01-.07-4.07.91-6.47,5.52-5.98,4.3.46,5.48-1.94,5.43-5.73-.11-7.29.11-14.58-.14-21.86-.16-4.43,2.08-5.24,5.84-5.26,3.67-.01,5.97.5,5.89,5.08-.23,12.75-.08,25.51-.08,38.26Z"/>
      <path class="cls-1" d="M634.82,79.96c.28-.39.71-.74.81-1.17,2.19-9.3,2.06-9.43-7.5-9.41-11.14.02-22.29-.11-33.43.03-3.77.05-5.56-1.18-5.42-5.13.13-3.66.47-6.37,5.38-6.31,16.63.2,33.26.15,49.89-.03,4.21-.05,5.38,1.86,4.82,5.45-1.21,7.85-2.43,15.7-3.89,23.5-.77,4.13-3.59,5.26-8.9,4.19-4.29-.86-1.99-3.61-1.81-5.8.06-.78-.17-1.58-.27-2.37.11-.99.21-1.97.32-2.96Z"/>
      <path class="cls-1" d="M716.34,87.44c0,8.44-.09,16.88.04,25.32.06,3.79-1.02,5.91-5.34,5.86-4.03-.05-5.68-1.58-5.58-5.64.18-7.28-.13-14.57.1-21.84.12-3.75-1.06-5.83-4.98-5.45-5.04.48-5.09-2.69-5.19-6.29-.11-3.99,1.31-5.94,5.53-5.45,3.55.41,4.71-1.65,4.66-4.81-.04-2.48.08-4.97-.11-7.44-.29-3.98,1.63-5.2,5.38-5.14,3.6.06,5.6.97,5.51,5.08-.2,8.6-.06,17.21-.06,25.81.01,0,.02,0,.04,0Z"/>
      <path class="cls-1" d="M732.58,88c0,8.78-.04,17.55.02,26.33.02,3.49-.38,6.19-4.99,6.17-4.26-.02-5.86-1.6-5.82-5.91.16-17.88.13-35.77.01-53.65-.03-3.88,1.13-5.84,5.34-5.86,4.03-.01,5.61,1.49,5.52,5.6-.22,9.1-.07,18.21-.07,27.32Z"/>
      <path class="cls-1" d="M385.79,141.55c-7.65,0-15.29-.1-22.94.04-3.46.06-4.73-1.33-4.64-4.72.17-5.95.18-11.92.02-17.87-.12-4.45,2.66-4.53,5.91-4.54,3.31-.02,5.86.27,6.04,4.57.49,11.31.59,11.41,12,11.64,9.14.19,18.28.18,27.42.08,3.55-.04,5.49.75,5.61,4.9.12,4.21-1.21,6.18-5.51,6.14-7.97-.07-15.95-.02-23.92-.02,0-.08,0-.16,0-.23Z"/>
      <path class="cls-1" d="M705.06,141.82c-7.64,0-15.28-.11-22.92.05-4.17.09-6.14-1.33-5.95-5.75.23-5.61.14-11.24-.02-16.86-.13-4.6,2.73-4.84,6.2-4.91,3.51-.08,5.22,1.08,5.09,4.83-.46,13.91.13,11.38,11.86,11.54,9.46.13,18.93.13,28.39-.02,4.16-.07,6.91.33,6.89,5.72-.01,5.22-2.72,5.5-6.63,5.44-7.64-.13-15.28-.04-22.92-.03Z"/>
    </g>
  </g>
</svg>