<?xml version="1.0" encoding="UTF-8"?>
<svg id="Layer_1" data-name="Layer 1" xmlns="http://www.w3.org/2000/svg" viewBox="0 0 178.8 42.55">
  <defs>
    <style>
      .cls-1 {
        fill: white;
        stroke-width: 0px;
      }
    </style>
  </defs>
  <path class="cls-1" d="M17.27,15.9s-4.18,5.88,4.18,9.15c0,0,3.23-6.65-4.18-9.15"/>
  <path class="cls-1" d="M29.49,17.45s-7.54.27-5.5,8.52c0,0,7.66-1.44,5.5-8.52"/>
  <path class="cls-1" d="M18.65,3.7s-6.09,4.17.54,9.93c0,0,5.49-5.2-.54-9.93"/>
  <path class="cls-1" d="M39.96,17.66s-7.13-2.32-8.44,6.06c0,0,7.69,1.27,8.44-6.06"/>
  <path class="cls-1" d="M20.44,26.24s-7.52-.66-6.65,7.77c0,0,7.79-.48,6.65-7.77"/>
  <path class="cls-1" d="M14.89,25.24s-6.54-3.52-9.49,4.49c0,0,7.31,2.58,9.49-4.49"/>
  <path class="cls-1" d="M35.69,30.44s-2.05-6.79-10.14-3c0,0,3.29,6.63,10.14,3"/>
  <path class="cls-1" d="M43.5,28.39s-1.83-6.08-9.08-2.69c0,0,2.95,5.93,9.08,2.69"/>
  <path class="cls-1" d="M30.76,0s-7.53-.44-6.38,7.96c0,0,7.77-.71,6.38-7.96"/>
  <path class="cls-1" d="M7.03,16.42s-1.06,6.99,7.99,6.57c0,0-.15-7.3-7.99-6.57"/>
  <path class="cls-1" d="M0,19.31s.28,5.96,7.73,4.3c0,0-1.34-6.05-7.73-4.3"/>
  <path class="cls-1" d="M28.78,9.56s-7.5-.79-6.8,7.65c0,0,7.8-.35,6.8-7.65"/>
  <path class="cls-1" d="M37.09,9.74s-7.53-.53-6.49,7.89c0,0,7.78-.62,6.49-7.89"/>
  <path class="cls-1" d="M10.4,7.87s-3.96,6.01,4.52,9.01c0,0,2.98-6.76-4.52-9.01"/>
  <polygon class="cls-1" points="22.61 28.37 21.3 42.54 25.35 42.55 24.52 31 22.61 28.37"/>
  <path class="cls-1" d="M66.38,10.26v-2.88s-3.91-.58-3.91-.58l-.05.12-.37.79s.71.26.71.26c0,0,.33.18.33.18.5.28.65.51.79.76.21.37.25.64.32,1.37v19.03s1.69,0,1.69,0l.5-2.99s0-10.57,0-10.9h3.89v-1.84h-3.89v-3.31Z"/>
  <path class="cls-1" d="M52.92,14.28c0-.78.29-1.57.86-2.32.57-.75,1.34-1.11,2.37-1.11s1.81.36,2.38,1.11c.58.76.87,1.54.87,2.32-.01.79-.31,1.57-.88,2.33-.56.76-1.34,1.13-2.37,1.13s-1.8-.37-2.37-1.13c-.57-.76-.86-1.54-.86-2.33M56.14,9.11c-1.5,0-2.81.51-3.9,1.5-1.09,1-1.65,2.26-1.65,3.74s.56,2.75,1.65,3.74c1.09.98,2.4,1.48,3.9,1.48s2.81-.5,3.89-1.5c1.08-.99,1.63-2.25,1.63-3.72-.02-1.5-.57-2.76-1.65-3.75-1.07-.99-2.38-1.49-3.88-1.49"/>
  <path class="cls-1" d="M76.45,12.71c.18.13.21.44.21.68v2.27c0,.25.06.44.19.57.13.13.3.19.52.19h10.67v-1.68h-8.98v-1.57h8.58v-3.43s0-1.48,0-1.48h-11.4v1.66h9v1.62h-9.26v.94l.14.03s.09.02.33.2"/>
  <polygon class="cls-1" points="72.2 18.21 72.2 19.95 91.69 19.95 91.69 18.21 91.51 18.21 72.2 18.21"/>
  <path class="cls-1" d="M79.17,23.61h6.04v3.94h-6.04v-3.94ZM87.35,21.9h-11.19v.9l.14.03s.1.03.33.21c.14.11.21.33.21.64v4.8c0,.26.09.47.26.61.17.13.33.2.48.2h9.15c.22,0,.41-.07.56-.21.15-.14.23-.35.23-.6v-6.59h-.18Z"/>
  <path class="cls-1" d="M109.7,10.26v-2.88s-3.91-.58-3.91-.58l-.05.12-.38.79s.71.26.71.26c0,0,.33.18.33.18.49.28.65.51.8.76.2.36.24.59.31,1.37v19.03h1.69l.5-2.99s0-10.57,0-10.9h3.89v-1.84h-3.89v-3.31Z"/>
  <path class="cls-1" d="M103.79,17.78l-1.66.21c-1.59.18-3.01.27-4.24.27h-1.41v-7.07h7.16v-1.85h-10.3v.99l.14.02s.12.03.41.2c.17.1.26.38.26.8v8.29c0,.25.06.46.18.61.13.16.35.24.68.24,2.07,0,4.15-.15,6.17-.44,1.98-.28,2.6-.4,4.39-.85l.13-.03v-1.74l-1.79.32-.11.02Z"/>
  <polygon class="cls-1" points="114.85 18.01 114.85 19.72 123.83 19.72 123.83 24.55 125.84 24.55 126.25 22.72 126.25 19.72 135.1 19.72 135.1 18.01 134.93 18.01 114.85 18.01"/>
  <path class="cls-1" d="M127.16,14.39c-.58.57-1.27.86-2.07.86s-1.49-.28-2.07-.86c-.58-.58-.87-1.25-.87-2.05s.29-1.47.87-2.05c.59-.58,1.26-.87,2.07-.87s1.5.29,2.07.87c.59.58.87,1.25.87,2.05s-.29,1.47-.87,2.05M121.51,15.69c1.11.82,2.31,1.24,3.58,1.24s2.5-.42,3.61-1.24c1.13-.83,1.71-1.95,1.71-3.31s-.57-2.49-1.71-3.36c-1.13-.86-2.34-1.29-3.62-1.29s-2.48.43-3.59,1.29c-1.12.87-1.69,2-1.69,3.36s.57,2.47,1.7,3.31"/>
  <path class="cls-1" d="M121.56,24.39v-1.78s-2.94-.24-2.94-.24l-.05.11-.38.8.2.05c.05.02.19.07.5.28.2.14.3.44.3.89v4.16c0,.27.08.46.24.58.14.1.3.16.47.16h11.27v-1.81h-9.62v-3.21Z"/>
  <path class="cls-1" d="M145.89,13.41c.49-.97.84-1.98,1.04-3,.02-.04.02-.09.02-.14,0-.08-.02-.17-.08-.24-.11-.16-.24-.19-.32-.19h-8.27v1.81h5.6c-.47,1.79-1.38,3.46-2.73,4.95-1.41,1.56-2.95,2.83-4.58,3.77l-.22.13,1.32,1.06.1-.05c.97-.52,1.94-1.16,2.9-1.9.91-.69,1.75-1.47,2.52-2.31.23.27,3.51,4.04,3.51,4.04l1.77-1.75s-4.02-3.36-4.26-3.56c.64-.83,1.2-1.71,1.66-2.62"/>
  <path class="cls-1" d="M152.2,6.71l-.06.09-.46.69s.7.28.7.28c0,0,.52.34.52.34.21.2.3.34.47.68.16.33.24.77.24,1.33v4.22h-2.38v-3.48s-.01-2.78-.01-2.78l-3.54-.58-.5.8.56.19s.35.17.35.17c0,0,.27.19.27.19.26.22.37.4.52.74.13.32.21.76.21,1.32v17.73h1.75l.39-2.8s0-9.27,0-9.6h2.38v13.14h1.72l.45-2.72V10.08s0-2.93,0-2.93l-3.57-.44Z"/>
  <path class="cls-1" d="M174.91,13.57v-6.19s-3.9-.58-3.9-.58l-.06.12-.38.78.58.24.47.22c.48.27.64.5.79.75.2.36.24.59.31,1.37v14.15s1.69,0,1.69,0l.5-2.99s0-5.7,0-6.03h3.89v-1.84h-3.89Z"/>
  <path class="cls-1" d="M170.75,18.34l1.04-.26v-.13s0-1.58,0-1.58l-.91.2c-.88.19-1.28.28-2.56.43-1.55.18-2.94.27-4.15.27h-1.37v-5.92h6.99v-1.81h-10.07v.97l.14.03s.12.03.4.2c.2.12.25.49.25.78v7.12c0,.25.06.45.18.6.12.16.34.23.66.23,2.03,0,4.06-.14,6.03-.43,1.6-.23,2.31-.41,3.38-.69"/>
  <path class="cls-1" d="M167.12,24.09c0-.33.03-.65.08-.96,0,0,.1-.53.1-.53l.05-.28-.19-.02-2.94-.23-.05.1-.39.78.21.06c.07.02.22.08.52.28.2.13.31.43.31.89v4.49c0,.27.08.46.24.58.14.1.3.16.47.16h11.14v-1.81h-9.54v-3.51Z"/>
  <path class="cls-1" d="M54.24,42.45h-.93v-7.22c0-.05-.01-.1-.05-.13-.04-.03-.09-.05-.14-.05h-1.23c-.26,0-.45.06-.58.19-.13.12-.25.3-.35.53h-.37l.09-1.4h6.23l.08,1.4h-.36c-.11-.23-.22-.41-.35-.53-.13-.12-.33-.19-.58-.19h-1.24s-.09.02-.14.05c-.05.04-.07.08-.07.13v7.22Z"/>
  <path class="cls-1" d="M62.91,42.45h-.9v-.9s.01-2.05.01-2.05c0-.4-.08-.75-.23-1.07-.15-.31-.47-.49-.94-.52-.36-.03-.72.11-1.1.42-.37.31-.56.69-.56,1.14v2.07s0,.9,0,.9h-.88v-7.04c0-.18-.04-.32-.11-.41-.07-.09-.19-.14-.35-.14h-.3l.16-.38,1.5-.18v3.62c.29-.28.58-.47.87-.58.29-.11.54-.16.77-.16.68,0,1.19.2,1.54.61.35.41.53.97.53,1.69v2.98Z"/>
  <path class="cls-1" d="M67.86,38.2c-.3-.28-.65-.43-1.04-.43-.42,0-.78.15-1.08.47-.3.31-.48.7-.57,1.18h2.9c.08,0,.14-.01.18-.04.04-.03.06-.08.06-.15,0-.4-.16-.74-.46-1.03M65.16,40.13c.06.46.25.85.58,1.19.33.33.73.5,1.2.5.31,0,.61-.06.91-.18.29-.11.55-.26.75-.44l.39.73c-.25.18-.56.33-.92.44-.36.11-.78.17-1.25.17-.72,0-1.34-.26-1.88-.77-.54-.51-.81-1.19-.81-2.02,0-.74.26-1.37.81-1.9.53-.53,1.17-.79,1.91-.79.66,0,1.24.22,1.74.67.49.45.74,1.11.74,1.99,0,.13-.03.23-.11.29-.07.07-.17.09-.29.09h-3.75Z"/>
  <path class="cls-1" d="M75.6,38.6v3.17h2.15c.5,0,.91-.15,1.23-.45.31-.3.47-.69.47-1.17,0-.51-.19-.9-.57-1.17-.38-.26-.76-.39-1.14-.39h-2.13ZM75.8,35.05s-.09.02-.14.05c-.04.04-.06.08-.06.13v2.67h1.65c.43,0,.81-.13,1.14-.39.33-.26.5-.62.5-1.09,0-.52-.19-.88-.57-1.08-.38-.19-.77-.29-1.17-.29h-1.35ZM74.7,41.38v-5.51c0-.29-.04-.53-.12-.7-.08-.18-.28-.3-.58-.37l-.3-.07.17-.36h3.49c.66,0,1.24.18,1.75.54.51.36.77.86.77,1.52,0,.39-.1.73-.29,1.03-.19.29-.47.54-.81.74.39.1.78.33,1.15.67.37.34.55.79.55,1.34,0,.52-.2,1.02-.6,1.51-.39.49-1.07.74-2.03.74h-3.14v-1.07Z"/>
  <path class="cls-1" d="M85.03,38.2c-.31-.28-.65-.43-1.04-.43-.42,0-.78.15-1.07.47-.3.31-.48.7-.57,1.18h2.9c.08,0,.14-.01.18-.04.04-.03.06-.08.06-.15,0-.4-.15-.74-.46-1.03M82.34,40.13c.06.46.25.85.58,1.19.33.33.72.5,1.2.5.31,0,.61-.06.91-.18.29-.11.54-.26.75-.44l.39.73c-.25.18-.56.33-.91.44-.36.11-.78.17-1.26.17-.71,0-1.34-.26-1.88-.77-.54-.51-.81-1.19-.81-2.02,0-.74.27-1.37.8-1.9.54-.53,1.18-.79,1.91-.79.66,0,1.24.22,1.74.67.5.45.74,1.11.74,1.99,0,.13-.04.23-.11.29-.07.07-.17.09-.29.09h-3.75Z"/>
  <path class="cls-1" d="M91.6,39.16c-.07-.35-.26-.66-.6-.91-.33-.25-.67-.38-1.01-.38-.4,0-.78.18-1.15.52-.37.35-.55.84-.55,1.47,0,.56.17,1.02.51,1.38.34.37.74.56,1.18.56.3,0,.6-.09.91-.26.3-.17.54-.4.71-.7v-1.69ZM92.5,42.45h-.9v-.54c-.27.25-.57.42-.89.52-.33.1-.64.13-.92.11-.71-.06-1.3-.33-1.77-.82-.47-.48-.7-1.1-.7-1.85s.25-1.42.76-1.94c.51-.52,1.1-.79,1.79-.79.21,0,.47.04.81.13.34.09.62.26.85.52l.06-.58h.91M92.5,38.17v3.43"/>
  <path class="cls-1" d="M95.04,38.14v2.12c0,.4.09.74.25,1.02.16.28.48.43.97.47.33.02.65-.09.97-.33.31-.23.53-.51.66-.81v-2.43c0-.17-.03-.3-.1-.4-.06-.1-.17-.15-.32-.15h-.24l.16-.38,1.38-.18v5.38h-.89v-.65c-.33.29-.63.49-.9.58-.27.09-.51.14-.72.14-.66,0-1.18-.18-1.55-.53-.37-.35-.55-.87-.55-1.56v-2.2c0-.18-.04-.32-.11-.41-.07-.1-.19-.14-.35-.14h-.31l.16-.38,1.49-.18"/>
  <path class="cls-1" d="M101.4,36.56v.65h1.33v.71h-1.33v2.95c0,.29.04.52.13.66.09.14.21.23.36.27.11.03.25.04.4.02.15-.02.3-.07.44-.14l.09.68c-.14.05-.29.1-.47.13-.18.03-.37.04-.57.03-.33-.01-.63-.15-.89-.41-.26-.25-.39-.61-.39-1.07v-3.12h-.93v-.71h.93v-.57c0-.18-.03-.32-.1-.41-.07-.09-.19-.14-.36-.14h-.29l.15-.38,1.5-.18"/>
  <path class="cls-1" d="M104.98,38.11v3.43M104.98,42.43h-.89v-4.23c0-.19-.04-.32-.11-.41-.08-.09-.19-.14-.35-.14h-.31l.16-.39,1.51-.18v4.49s0,.86,0,.86ZM104.94,35.69c-.14.14-.31.21-.5.21s-.36-.07-.51-.21c-.15-.14-.22-.31-.22-.5s.07-.36.22-.5c.15-.14.31-.21.51-.21s.36.08.5.21c.15.14.22.31.22.5s-.07.36-.22.5"/>
  <path class="cls-1" d="M107.6,42.45h-.89v-.71s0-3.83,0-3.83h-.94v-.71h.94v-.89c0-.75.19-1.29.58-1.62.38-.33.8-.49,1.25-.49.2,0,.37.02.54.06.17.04.3.08.41.12l-.33.68c-.09-.06-.18-.1-.28-.14-.1-.04-.2-.06-.31-.06-.24,0-.46.09-.66.28-.21.19-.31.46-.31.83v1.25h1.4v.71h-1.4v3.83s0,.71,0,.71Z"/>
  <path class="cls-1" d="M111.12,38.14v2.12c0,.4.07.74.24,1.02.16.28.48.43.96.47.33.02.65-.09.97-.33.31-.23.53-.51.66-.81v-2.43c0-.17-.03-.3-.1-.4-.06-.1-.17-.15-.31-.15h-.25l.16-.38,1.38-.18v5.38h-.89v-.65c-.33.29-.63.49-.9.58-.27.09-.51.14-.72.14-.66,0-1.18-.18-1.55-.53-.37-.35-.55-.87-.55-1.56v-2.2c0-.18-.04-.32-.11-.41-.07-.1-.19-.14-.35-.14h-.31l.16-.38,1.49-.18"/>
  <path class="cls-1" d="M117.4,35.32v7.12h-.89v-7.04c0-.18-.04-.32-.1-.42-.07-.09-.19-.14-.36-.14h-.29l.15-.38,1.5-.18"/>
  <path class="cls-1" d="M157.28,39.16c-.06-.35-.26-.66-.59-.91-.33-.25-.67-.38-1.01-.38-.4,0-.78.18-1.15.52-.37.35-.55.84-.55,1.47,0,.56.17,1.02.51,1.38.34.37.73.56,1.18.56.3,0,.6-.09.91-.26.3-.17.54-.4.71-.7v-1.69ZM158.18,42.45h-.9v-.54c-.26.25-.56.42-.89.52-.33.1-.64.13-.91.11-.72-.06-1.31-.33-1.77-.82-.47-.48-.7-1.1-.7-1.85s.25-1.42.76-1.94c.51-.52,1.1-.79,1.79-.79.2,0,.47.04.81.13.34.09.62.26.85.52l.06-.58h.91M158.18,38.17v3.43"/>
  <path class="cls-1" d="M135.65,38.14v2.12c0,.4.09.74.24,1.02.16.28.48.43.97.47.33.02.65-.09.96-.33.31-.23.54-.51.67-.81v-2.43c0-.17-.03-.3-.1-.4-.07-.1-.17-.15-.32-.15h-.25l.16-.38,1.39-.18v5.38h-.89v-.65c-.33.29-.63.49-.9.58-.27.09-.51.14-.72.14-.66,0-1.18-.18-1.55-.53-.37-.35-.56-.87-.56-1.56v-2.2c0-.18-.04-.32-.11-.41-.07-.1-.19-.14-.35-.14h-.3l.16-.38,1.49-.18"/>
  <path class="cls-1" d="M160.79,36.56v.65h1.33v.71h-1.33v2.95c0,.29.04.52.13.66.09.14.21.23.35.27.12.03.25.04.41.02.15-.02.3-.07.44-.14l.1.68c-.14.05-.3.1-.47.13-.18.03-.37.04-.57.03-.33-.01-.63-.15-.89-.41-.26-.25-.39-.61-.39-1.07v-3.12h-.94v-.71h.94v-.57c0-.18-.04-.32-.1-.41-.07-.09-.19-.14-.36-.14h-.29l.14-.38,1.5-.18"/>
  <path class="cls-1" d="M164.38,38.11v3.43M164.38,42.43h-.89v-4.23c0-.19-.04-.32-.12-.41-.07-.09-.19-.14-.35-.14h-.3l.16-.39,1.51-.18v4.49s0,.86,0,.86ZM164.35,35.69c-.14.14-.31.21-.5.21s-.37-.07-.51-.21c-.15-.14-.22-.31-.22-.5s.07-.36.22-.5c.15-.14.31-.21.51-.21s.36.08.5.21c.14.14.21.31.21.5s-.07.36-.21.5"/>
  <path class="cls-1" d="M124.15,42.45h-.91v-1.07s0-5.51,0-5.51c0-.29-.04-.53-.12-.7-.08-.18-.27-.3-.58-.37l-.31-.07.17-.36h5.62l.08,1.37h-.36c-.1-.23-.22-.4-.35-.52-.13-.11-.33-.17-.58-.17h-2.46c-.05,0-.1.02-.14.05-.04.04-.06.08-.06.13v2.54h2.53c.15,0,.3,0,.46-.02.16-.01.31-.03.45-.05v.87c-.13-.02-.28-.03-.44-.05-.16-.01-.32-.02-.47-.02h-2.53v2.89s0,1.07,0,1.07Z"/>
  <path class="cls-1" d="M132.05,38.37c-.32-.39-.72-.58-1.2-.58s-.9.19-1.21.58c-.31.39-.47.87-.47,1.45s.16,1.05.47,1.43c.31.39.71.58,1.21.58s.9-.2,1.21-.58c.31-.38.46-.86.46-1.43s-.16-1.07-.48-1.46M132.75,41.76c-.52.52-1.15.77-1.9.77s-1.37-.26-1.89-.77c-.52-.51-.79-1.15-.79-1.93s.26-1.44.79-1.96c.52-.51,1.15-.78,1.89-.78s1.38.26,1.9.78c.52.52.78,1.17.78,1.96s-.26,1.42-.78,1.93"/>
  <path class="cls-1" d="M145.65,42.44h-.88v-2.95c0-.4-.07-.76-.22-1.07-.15-.31-.46-.49-.94-.52-.35-.03-.71.11-1.09.42-.37.31-.56.69-.56,1.14v2.07s0,.9,0,.9h-.9v-4.24c0-.19-.02-.33-.09-.41-.06-.09-.19-.14-.35-.14h-.32l.16-.39,1.63-.18c-.02.07-.03.18-.06.32-.02.14-.05.31-.1.52.32-.3.62-.5.91-.6.29-.1.54-.16.77-.16.67,0,1.18.2,1.54.61.35.41.52.97.52,1.69v2.08s0,.9,0,.9Z"/>
  <path class="cls-1" d="M176.67,42.44h-.89v-2.95c0-.4-.07-.76-.22-1.07-.15-.31-.46-.49-.94-.52-.35-.03-.72.11-1.09.42-.38.31-.57.69-.57,1.14v2.07s0,.9,0,.9h-.9v-4.24c0-.19-.02-.33-.09-.41-.07-.09-.18-.14-.35-.14h-.32l.16-.39,1.63-.18c-.02.07-.03.18-.06.32-.02.14-.06.31-.1.52.32-.3.62-.5.91-.6.29-.1.55-.16.77-.16.67,0,1.18.2,1.53.61.35.41.52.97.52,1.69v2.08s0,.9,0,.9Z"/>
  <path class="cls-1" d="M151,39.3c-.08-.42-.28-.76-.6-1.03-.32-.27-.65-.4-1-.4-.44,0-.84.17-1.19.52-.35.35-.52.84-.52,1.47,0,.59.16,1.06.46,1.41.31.35.72.53,1.24.53.32,0,.63-.08.91-.25.28-.17.52-.41.7-.73v-1.51ZM151.87,35.32v7.12h-.88v-.56c-.24.24-.53.41-.89.51-.36.1-.66.14-.92.12-.71-.05-1.31-.32-1.78-.8-.47-.48-.7-1.1-.7-1.85s.25-1.38.76-1.92c.51-.54,1.11-.81,1.8-.81.2,0,.48.05.83.16.35.11.65.27.9.51v-2.39c0-.18-.03-.32-.1-.42-.07-.09-.19-.14-.36-.14h-.29l.15-.38,1.48-.18"/>
  <path class="cls-1" d="M169.34,38.37c-.32-.39-.72-.58-1.2-.58s-.9.19-1.21.58c-.31.39-.47.87-.47,1.45s.16,1.05.47,1.43c.31.39.72.58,1.21.58s.9-.2,1.21-.58c.31-.38.47-.86.47-1.43s-.16-1.07-.48-1.46M170.04,41.76c-.52.52-1.15.77-1.89.77s-1.37-.26-1.89-.77c-.53-.51-.79-1.15-.79-1.93s.26-1.44.79-1.96c.52-.51,1.15-.78,1.89-.78s1.37.26,1.89.78c.52.52.78,1.17.78,1.96s-.26,1.42-.78,1.93"/>
</svg>